<svg id="Layer_1" data-name="Layer 1" xmlns="http://www.w3.org/2000/svg" viewBox="0 0 854 451.5"><defs><style>.cls-1,.cls-2{fill:#f5f5f5;}.cls-2{stroke:#f5f5f5;stroke-miterlimit:10;stroke-width:20px;}</style></defs><title>skaler</title><path class="cls-1" d="M1265,311V417.78H451V311h814m20-20H431V437.78h854V291Z" transform="translate(-431 -291)"/><path class="cls-1" d="M636,311V692H451V311H636m20-20H431V712H656V291Z" transform="translate(-431 -291)"/><path class="cls-1" d="M844.73,311V692H659.79V311H844.73m20-20H639.79V712H864.73V291Z" transform="translate(-431 -291)"/><path class="cls-1" d="M1056.21,311V692h-185V311h185m20-20h-225V712h225V291Z" transform="translate(-431 -291)"/><path class="cls-1" d="M1265,311V692h-185V311h185m20-20h-225V712h225V291Z" transform="translate(-431 -291)"/><path class="cls-1" d="M1265,448.11V554.89H451V448.11h814m20-20H431V574.89h854V428.11Z" transform="translate(-431 -291)"/><path class="cls-1" d="M1265,585.22V692H451V585.22h814m20-20H431V712h854V565.22Z" transform="translate(-431 -291)"/><circle class="cls-2" cx="107.5" cy="416.5" r="25"/><circle class="cls-2" cx="741.5" cy="416.5" r="25"/><circle class="cls-2" cx="107.5" cy="278.5" r="25"/><circle class="cls-2" cx="532.5" cy="274.5" r="25"/><circle class="cls-2" cx="107.5" cy="137.5" r="25"/><circle class="cls-2" cx="532.5" cy="137.5" r="25"/></svg>